<?xml version="1.0" standalone="no"?><!DOCTYPE svg PUBLIC "-//W3C//DTD SVG 1.1//EN" "http://www.w3.org/Graphics/SVG/1.1/DTD/svg11.dtd"><svg t="1751720196213" class="icon" viewBox="0 0 1024 1024" version="1.1" xmlns="http://www.w3.org/2000/svg" p-id="6431" xmlns:xlink="http://www.w3.org/1999/xlink" width="200" height="200"><path d="M370.176 581.696l4.48 3.648L512 722.752l137.344-137.408a32 32 0 0 1 48.96 40.832l-3.648 4.48L557.248 768l137.408 137.344a32 32 0 0 1-40.832 48.96l-4.48-3.648L512 813.248l-137.344 137.408a32 32 0 0 1-48.96-40.832l3.648-4.48L466.752 768 329.344 630.656a32 32 0 0 1 40.832-48.96zM512 120a256.384 256.384 0 0 1 254.08 224.384 240.32 240.32 0 0 1 225.92 240.768c-0.64 132.672-110.912 238.848-243.648 238.848h-28.352a16 16 0 0 1-16-16v-32a16 16 0 0 1 16-16h28.864c98.496 0 180.8-80.64 179.136-179.072a176.192 176.192 0 0 0-176-172.928h-32a16 16 0 0 1-16-16v-12.8c0-105.088-83.2-193.152-188.288-195.2a192.192 192.192 0 0 0-195.712 192v16a16 16 0 0 1-16 16h-32A176.192 176.192 0 0 0 96 580.928c-1.664 98.496 80.64 179.072 179.136 179.072h28.864a16 16 0 0 1 16 16v32a16 16 0 0 1-16 16h-28.352C142.912 824 32.64 717.824 32 585.152a240.32 240.32 0 0 1 225.92-240.768A256.384 256.384 0 0 1 512 120z" fill="#303133" p-id="6432"></path></svg>