<?xml version="1.0" standalone="no"?><!DOCTYPE svg PUBLIC "-//W3C//DTD SVG 1.1//EN" "http://www.w3.org/Graphics/SVG/1.1/DTD/svg11.dtd"><svg t="1751202174986" class="icon" viewBox="0 0 1024 1024" version="1.1" xmlns="http://www.w3.org/2000/svg" p-id="2414" xmlns:xlink="http://www.w3.org/1999/xlink" width="200" height="200"><path d="M209.1 956.3c-65.5 0-118.9-53.3-118.9-118.8V185c0-65.5 53.3-118.8 118.9-118.8h482.7l240.6 240.5v530.7c0 65.5-53.3 118.8-118.9 118.8H209.1z m0-833.7c-34.4 0-62.4 28-62.4 62.4v652.4c0 34.4 28 62.4 62.4 62.4h604.4c34.4 0 62.4-28 62.4-62.4V394.5H722.8c-35.8 0-64.1-6.7-84.4-20-22.9-15-34.5-38.1-34.5-68.7 0-1.1-1.4-109.7-0.9-181.3v-2H209.1z m451.3 153.1c0 34.4 28 62.4 62.4 62.4h155.9L660.4 119.8v155.9z" fill="#333333" p-id="2415"></path><path d="M330 563.5c-15.5 0-28.2-12.7-28.2-28.2s12.6-28.2 28.2-28.2h362.6c15.5 0 28.2 12.6 28.2 28.2s-12.6 28.2-28.2 28.2H330z" fill="#333333" p-id="2416"></path><path d="M330 714.6c-15.5 0-28.2-12.7-28.2-28.2s12.6-28.2 28.2-28.2h362.6c15.5 0 28.2 12.6 28.2 28.2s-12.6 28.2-28.2 28.2H330z" fill="#333333" p-id="2417"></path></svg>