<?xml version="1.0" standalone="no"?><!DOCTYPE svg PUBLIC "-//W3C//DTD SVG 1.1//EN" "http://www.w3.org/Graphics/SVG/1.1/DTD/svg11.dtd"><svg t="1751720382360" class="icon" viewBox="0 0 1024 1024" version="1.1" xmlns="http://www.w3.org/2000/svg" p-id="10233" xmlns:xlink="http://www.w3.org/1999/xlink" width="200" height="200"><path d="M862.8 105.5l-0.5-0.3v-0.5c-25-24.9-59.6-40.8-98-40.8H153.7c-18.6 0-34.2 15.9-34.2 34.5v827.4c0 18.6 15.6 33.7 34.2 33.7h610.5c37.9 0 72.1-15.1 97.5-39.6l0.5-1c25.2-25.2 41.1-60.1 41.1-97.8v-618c0.1-38.2-15.8-72.4-40.5-97.6zM525.6 891.1H188.5v-758h337.2v758z m139.4 0h-98v-758h98v758z m169.5-69.9c0 19.1-7.8 36.7-20.5 49.4-13 12.7-30.3 20.5-49.6 20.5h-58v-758h58c19.3 0 36.6 7.6 49.6 20.5 12.7 12.5 20.5 29.8 20.5 49.4v618.2z" fill="#231815" p-id="10234"></path></svg>