<?xml version="1.0" standalone="no"?><!DOCTYPE svg PUBLIC "-//W3C//DTD SVG 1.1//EN" "http://www.w3.org/Graphics/SVG/1.1/DTD/svg11.dtd"><svg t="1751164507780" class="icon" viewBox="0 0 1024 1024" version="1.1" xmlns="http://www.w3.org/2000/svg" p-id="11944" xmlns:xlink="http://www.w3.org/1999/xlink" width="200" height="200"><path d="M395.904888 627.939569c-127.83448 0-231.026724-103.192244-231.026723-231.026724s103.192244-231.026724 231.026723-231.026724S626.931612 269.078365 626.931612 396.912845 523.740392 627.939569 395.904888 627.939569z m308.035632 0H663.382802l-14.375405-13.861706c50.312896-58.526975 80.602759-134.508483 80.602759-217.165018 0-184.307679-149.397588-333.705268-333.705268-333.705268S62.200644 212.605166 62.200644 396.913868s149.397588 333.705268 333.705268 333.705268c82.656535 0 158.638043-30.289863 217.165018-80.602759l13.861706 14.375405v40.557718l256.69636 256.18266 76.495208-76.495208-256.183684-256.697383z" p-id="11945"></path></svg>