<?xml version="1.0" standalone="no"?><!DOCTYPE svg PUBLIC "-//W3C//DTD SVG 1.1//EN" "http://www.w3.org/Graphics/SVG/1.1/DTD/svg11.dtd"><svg t="1751720265403" class="icon" viewBox="0 0 1024 1024" version="1.1" xmlns="http://www.w3.org/2000/svg" p-id="7564" xmlns:xlink="http://www.w3.org/1999/xlink" width="200" height="200"><path d="M528 504a16 16 0 0 1 16 16v208h66.112c12.8 0 20.416 14.272 13.312 24.896l-98.112 147.136a16 16 0 0 1-26.624 0l-98.112-147.2a16 16 0 0 1 13.312-24.832H480v-208a16 16 0 0 1 16-16z m-16-384a256.384 256.384 0 0 1 254.08 224.384 240.32 240.32 0 0 1 225.92 240.768c-0.64 132.672-110.912 238.848-243.648 238.848h-28.352a16 16 0 0 1-16-16v-32a16 16 0 0 1 16-16h28.864c98.496 0 180.8-80.64 179.136-179.072a176.192 176.192 0 0 0-176-172.928h-32a16 16 0 0 1-16-16v-12.8c0-105.088-83.2-193.152-188.288-195.2a192.192 192.192 0 0 0-195.712 192v16a16 16 0 0 1-16 16h-32A176.192 176.192 0 0 0 96 580.928c-1.664 98.496 80.64 179.072 179.136 179.072h28.864a16 16 0 0 1 16 16v32a16 16 0 0 1-16 16h-28.352C142.912 824 32.64 717.824 32 585.152a240.32 240.32 0 0 1 225.92-240.768A256.384 256.384 0 0 1 512 120z" fill="#2c2c2c" p-id="7565"></path></svg>